name C:\Users\Nicos\Documents\OpenSimProjects\SprintingProject\Study1\PredictiveResults\IC_pred_Sprinting_optimum_28-October-2023__10-08-04___HTD_Minus_4_p02_maxVel_01.mot
datacolumns 38
datarows 12
range 0.10511501 0.11486464
endheader
                time	/jointset/ground_pelvis/pelvis_tilt/value	/jointset/ground_pelvis/pelvis_list/value	/jointset/ground_pelvis/pelvis_rotation/value	/jointset/ground_pelvis/pelvis_tx/value	/jointset/ground_pelvis/pelvis_ty/value	/jointset/ground_pelvis/pelvis_tz/value	/jointset/hip_r/hip_flexion_r/value	/jointset/hip_r/hip_adduction_r/value	/jointset/hip_r/hip_rotation_r/value	/jointset/knee_r/knee_angle_r/value	/jointset/ankle_r/ankle_angle_r/value	/jointset/subtalar_r/subtalar_angle_r/value	/jointset/mtp_r/mtp_angle_r/value	/jointset/hip_l/hip_flexion_l/value	/jointset/hip_l/hip_adduction_l/value	/jointset/hip_l/hip_rotation_l/value	/jointset/knee_l/knee_angle_l/value	/jointset/ankle_l/ankle_angle_l/value	/jointset/subtalar_l/subtalar_angle_l/value	/jointset/mtp_l/mtp_angle_l/value	/jointset/back/lumbar_extension/value	/jointset/back/lumbar_bending/value	/jointset/back/lumbar_rotation/value	/jointset/acromial_r/arm_flex_r/value	/jointset/acromial_r/arm_add_r/value	/jointset/acromial_r/arm_rot_r/value	/jointset/elbow_r/elbow_flex_r/value	/jointset/radioulnar_r/pro_sup_r/value	/jointset/radius_hand_r/wrist_flex_r/value	/jointset/radius_hand_r/wrist_dev_r/value	/jointset/acromial_l/arm_flex_l/value	/jointset/acromial_l/arm_add_l/value	/jointset/acromial_l/arm_rot_l/value	/jointset/elbow_l/elbow_flex_l/value	/jointset/radioulnar_l/pro_sup_l/value	/jointset/radius_hand_l/wrist_flex_l/value	/jointset/radius_hand_l/wrist_dev_l/value	
          0.10511501	         -8.62733125	          4.10178024	        -13.05319207	          0.56932761	          0.96183652	          0.30529191	          8.72980160	         -5.05183049	          9.56214012	        -28.48124364	          8.79204307	        -22.77404403	         13.74652553	         64.27714718	        -11.57391845	          4.81260229	       -129.18812817	          9.19318147	        -20.84688931	          3.56999854	        -15.41705313	         -2.78057966	          5.42473973	         63.22535085	        -26.20118434	        -13.31585604	        149.34789843	         68.15569574	        -15.79283129	          9.18679349	        -49.75354094	          0.94561778	         -0.03690516	         93.66848465	         67.56956344	         -6.12581306	          5.40511702	
          0.10649408	         -8.65588638	          4.38615830	        -12.96520876	          0.58526836	          0.96154242	          0.30500034	          8.46946022	         -5.57210332	          9.34527328	        -29.46645154	          8.21020698	        -22.46118466	         13.36555693	         65.12180226	        -11.22500548	          4.77853866	       -128.85792977	          9.51907384	        -21.07852373	          2.97990690	        -15.24149887	         -3.09130555	          5.49068462	         64.76794384	        -26.15231757	        -12.73743582	        149.99400682	         67.58636465	        -15.57780426	          9.16699462	        -51.08749317	          0.96134328	         -0.01050580	         94.64946603	         67.39379814	         -6.29422434	          5.36693197	
          0.10649408	         -8.65588638	          4.38615830	        -12.96520876	          0.58526836	          0.96154242	          0.30500034	          8.46946022	         -5.57210332	          9.34527328	        -29.46645154	          8.21020698	        -22.46118466	         13.36555693	         65.12180226	        -11.22500548	          4.77853866	       -128.85792977	          9.51907384	        -21.07852373	          2.97990690	        -15.24149887	         -3.09130555	          5.49068462	         64.76794384	        -26.15231757	        -12.73743582	        149.99400682	         67.58636465	        -15.57780426	          9.16699462	        -51.08749317	          0.96134328	         -0.01050580	         94.64946603	         67.39379814	         -6.29422434	          5.36693197	
          0.10709632	         -8.66933807	          4.50731312	        -12.93023495	          0.59222250	          0.96142376	          0.30488394	          8.36686614	         -5.79517841	          9.25549175	        -29.90952600	          7.92754105	        -22.32086642	         13.15688928	         65.48586610	        -11.08256062	          4.76077853	       -128.70164652	          9.66108707	        -21.17307867	          2.72163146	        -15.16520171	         -3.22566840	          5.52311926	         65.42787326	        -26.12339667	        -12.46167371	        150.25885735	         67.34087102	        -15.48390298	          9.15783298	        -51.66613544	          0.96389285	         -0.00210535	         95.07745173	         67.31932430	         -6.37043640	          5.35407203	
          0.10899917	         -8.70515135	          4.87014756	        -12.83651132	          0.61416514	          0.96110101	          0.30456710	          8.07252378	         -6.47554505	          9.00155748	        -31.35510173	          6.92342327	        -21.87480329	         12.32860913	         66.60434640	        -10.67905213	          4.69903000	       -128.16051563	         10.10570052	        -21.44596070	          1.90541046	        -14.93923565	         -3.63928980	          5.64234400	         67.45985602	        -25.99991445	        -11.48673184	        151.02024860	         66.57888799	        -15.18716928	          9.12669272	        -53.47530752	          0.96389253	         -0.00000474	         96.41814899	         67.09634861	         -6.62189525	          5.32766286	
          0.11037824	         -8.71781366	          5.10827392	        -12.78239558	          0.63004157	          0.96092562	          0.30438481	          7.87506834	         -6.94014476	          8.84655205	        -32.43749575	          6.09024029	        -21.55603065	         11.56787689	         67.37679800	        -10.43065755	          4.65510356	       -127.72399542	         10.42151670	        -21.62366760	          1.31776493	        -14.79912273	         -3.92301274	          5.74199559	         68.88015799	        -25.87524471	        -10.69663459	        151.49549277	         66.04101492	        -14.97216390	          9.10174245	        -54.76431005	          0.95910243	         -0.01882064	         97.36980119	         66.94678734	         -6.81425585	          5.31987191	
          0.11037824	         -8.71781366	          5.10827392	        -12.78239558	          0.63004157	          0.96092562	          0.30438481	          7.87506834	         -6.94014476	          8.84655205	        -32.43749575	          6.09024029	        -21.55603065	         11.56787689	         67.37679800	        -10.43065755	          4.65510356	       -127.72399542	         10.42151670	        -21.62366760	          1.31776493	        -14.79912273	         -3.92301274	          5.74199559	         68.88015799	        -25.87524471	        -10.69663459	        151.49549277	         66.04101492	        -14.97216390	          9.10174245	        -54.76431005	          0.95910243	         -0.01882064	         97.36980119	         66.94678734	         -6.81425585	          5.31987191	
          0.11098048	         -8.71817434	          5.20428470	        -12.76168090	          0.63696837	          0.96086662	          0.30431717	          7.78992798	         -7.13428112	          8.78639214	        -32.91709661	          5.69554499	        -21.41989669	         11.21304316	         67.70217319	        -10.33352158	          4.63770178	       -127.52180869	         10.55697305	        -21.69766280	          1.06171877	        -14.74642480	         -4.04125892	          5.78812365	         69.48599257	        -25.81028403	        -10.33405728	        151.68169846	         65.81127640	        -14.87825321	          9.09001170	        -55.32043587	          0.95684541	         -0.03257969	         97.77782573	         66.88460984	         -6.90091505	          5.31919673	
          0.11288333	         -8.69749695	          5.47447961	        -12.70766551	          0.65882874	          0.96075088	          0.30415095	          7.52098903	         -7.71083574	          8.62762797	        -34.45201339	          4.35252885	        -21.00091309	          9.82663767	         68.68021834	        -10.07107581	          4.59160755	       -126.83704632	         10.97323468	        -21.92199235	          0.26946723	        -14.61563039	         -4.39082803	          5.94448387	         71.33711452	        -25.56293852	         -9.14508544	        152.19069780	         65.10104293	        -14.58153644	          9.05035733	        -57.04560109	          0.94595213	         -0.08278676	         99.02725829	         66.70158909	         -7.18543174	          5.32520582	
          0.11426240	         -8.66652043	          5.63925981	        -12.68062196	          0.67464550	          0.96072659	          0.30407751	          7.33073809	         -8.09162563	          8.54571416	        -35.57909373	          3.27408268	        -20.71578917	          8.70059389	         69.34592477	         -9.92411199	          4.56725643	       -126.29742285	         11.26347659	        -22.07869969	         -0.29174022	        -14.54941621	         -4.62135014	          6.07022256	         72.61313519	        -25.34709059	         -8.26394999	        152.49395024	         64.60733474	        -14.36650348	          9.01846205	        -58.26282497	          0.93508218	         -0.12130664	         99.88689662	         66.58139346	         -7.40172324	          5.33738602	
          0.11426240	         -8.66652043	          5.63925981	        -12.68062196	          0.67464550	          0.96072659	          0.30407751	          7.33073809	         -8.09162563	          8.54571416	        -35.57909373	          3.27408268	        -20.71578917	          8.70059389	         69.34592477	         -9.92411199	          4.56725643	       -126.29742285	         11.26347659	        -22.07869969	         -0.29174022	        -14.54941621	         -4.62135014	          6.07022256	         72.61313519	        -25.34709059	         -8.26394999	        152.49395024	         64.60733474	        -14.36650348	          9.01846205	        -58.26282497	          0.93508218	         -0.12130664	         99.88689662	         66.58139346	         -7.40172324	          5.33738602	
          0.11486464	         -8.64998819	          5.70316740	        -12.67217525	          0.68154522	          0.96072979	          0.30405819	          7.24999928	         -8.24764961	          8.51936516	        -36.07413598	          2.77130398	        -20.59775574	          8.20684473	         69.62640047	         -9.87143850	          4.55918974	       -126.05039594	         11.38712366	        -22.14641991	         -0.53361559	        -14.52667895	         -4.71601081	          6.12881735	         73.15164344	        -25.24403414	         -7.87972148	        152.61163364	         64.39835907	        -14.27259860	          9.00365356	        -58.78510010	          0.93021761	         -0.13884755	        100.24812512	         66.53209224	         -7.49878580	          5.34467791	
